<svg version="1.1" xmlns="http://www.w3.org/2000/svg" style="display: block;" viewBox="0 0 2048 2048" width="700" height="700" preserveAspectRatio="none">
<path transform="translate(0,0)" fill="rgb(0,0,0)" d="M 0 0 L 2048 0 L 2048 2048 L 0 2048 L 0 0 z"/>
<path transform="translate(0,0)" fill="rgb(254,254,254)" d="M 863.739 269.455 C 929.549 267.649 1045.37 270.453 1107.06 288.317 C 1223.26 321.968 1371.75 442.21 1460.78 525.241 C 1474.83 518.17 1484.45 514.13 1499.4 509.269 C 1514 520.59 1534.98 537.821 1550.07 547.653 C 1444.1 559.074 1277.55 749.314 1208.77 829.784 C 1230.92 862.277 1204.88 876.582 1211.46 895.844 C 1232.87 958.52 1260.86 1019.71 1260.71 1087.82 C 1260.64 1120.38 1218.34 1138.03 1216.43 1166.9 C 1212.91 1220.16 1213.96 1275.71 1209.92 1329.23 C 1207.66 1359 1202.6 1388.48 1197.92 1417.7 C 1191.28 1458.21 1185.16 1498.8 1179.57 1539.47 C 1172.37 1594.32 1163.03 1656.98 1200.56 1703.78 C 1213.92 1720.44 1226.04 1766.91 1215 1787.54 C 1208.45 1795.71 1187.89 1799.56 1179.04 1800.84 C 1120.09 1809.4 1058.62 1810.79 999.667 1801.92 C 974.173 1798.09 949.261 1795.73 923.58 1795.15 C 903.722 1794.59 883.847 1794.98 864.027 1796.33 C 840.659 1797.85 820.764 1803.27 798.387 1792.11 C 731.802 1758.9 791.882 1704.93 808.437 1661.9 C 813.805 1647.94 817.944 1624.7 820.655 1609.65 C 832.608 1543.27 851.938 1466.46 841.252 1399.91 C 801.866 1495.35 771.95 1585.18 752.381 1686.75 C 744.507 1725.3 739.474 1764.37 737.321 1803.66 C 718.83 1793.62 696.487 1783.05 677.453 1773.48 C 666.683 1655.73 732.835 1494.95 781.515 1390.06 C 794.94 1361.13 813.419 1329.44 825.415 1301.63 C 819.391 1264.16 821.011 1228.06 805.633 1192.89 C 790.662 1158.66 783.943 1133.48 789.614 1095.61 C 795.692 1055.03 811.221 1017.44 816.198 976.667 C 820.113 947.225 844.299 915.669 867.908 897.744 C 870.026 874.396 871.642 855.704 881.787 833.915 C 892.596 810.697 909.177 827.737 918.05 811.999 C 926.024 797.857 907.978 780.765 900.029 768.838 C 895.454 761.862 891.592 754.444 888.499 746.696 C 884.687 736.994 881.413 720.312 879.319 709.884 C 868.925 658.109 870.151 616.468 891.868 567.836 C 917.975 509.376 958.285 470.215 1018.17 447.136 C 1045.26 451.349 1067.6 477.386 1086.68 495.37 C 1135.99 541.84 1134.8 625.384 1119.05 686.335 C 1113.22 708.532 1091.42 741.743 1092.61 763.926 C 1093.11 773.259 1156.33 780.661 1169.76 788.828 C 1176.21 780.637 1183.34 772.501 1190.13 764.583 C 1247.22 698.08 1308.3 634.836 1377.19 580.462 C 1353.51 556.338 1337.01 564.179 1313.47 582.752 C 1260.97 537.982 1203.99 496.265 1151.86 451.645 C 1078.15 388.536 1005.6 352.939 913.514 321.319 C 878.576 309.322 843.168 298.74 807.376 289.6 C 792.196 285.721 765.331 281.454 751.912 276.17 C 786.728 271.439 828.634 270.349 863.739 269.455 z"/>
</svg>